PathFileType	4	(X/Y/Z)	C:\Users\Basilio\Documents\Thesis Gigler\squatting_fais\c3dfiles\073\SLS_back_pre2\markers_experimental.trc
DataRate	CameraRate	NumFrames	NumMarkers	Units	OrigDataRate	OrigDataStartFrame	OrigNumFrames
200.000000	200.000000	4	61	mm	200.000000	950	1267
Frame#	Time	FHD			LBHD			RBHD			C7			T10			CLAV			LSHO			LUUPA			LMUPA			LDUPA			LLEP			LMEP			LRAD			LUL			LRFIN			RSHO			RUPA1			RMUPA			RDUPA			RLEP			RMEP			RRAD			RUL			RUFIN			LASI			RASI			USACR			LSACR			RSACR			LTHI1			LTHI2			LTHI3			LTHI4			LLFC			LMFC			LTIB1			LTIB2			LTIB3			LTIB4			LLMAL			LMMAL			LHEE			LMT1			LMT2			LMT5			RTHI			RTHI2			RTHI3			RTHI4			RLFC			RTIB1			RTIB2			RTIB3			RTIB4			RLMAL			RMMAL			RHEE			RMT1			RMT2			RMT5			RMFC			
		X1	Y1	Z1	X2	Y2	Z2	X3	Y3	Z3	X4	Y4	Z4	X5	Y5	Z5	X6	Y6	Z6	X7	Y7	Z7	X8	Y8	Z8	X9	Y9	Z9	X10	Y10	Z10	X11	Y11	Z11	X12	Y12	Z12	X13	Y13	Z13	X14	Y14	Z14	X15	Y15	Z15	X16	Y16	Z16	X17	Y17	Z17	X18	Y18	Z18	X19	Y19	Z19	X20	Y20	Z20	X21	Y21	Z21	X22	Y22	Z22	X23	Y23	Z23	X24	Y24	Z24	X25	Y25	Z25	X26	Y26	Z26	X27	Y27	Z27	X28	Y28	Z28	X29	Y29	Z29	X30	Y30	Z30	X31	Y31	Z31	X32	Y32	Z32	X33	Y33	Z33	X34	Y34	Z34	X35	Y35	Z35	X36	Y36	Z36	X37	Y37	Z37	X38	Y38	Z38	X39	Y39	Z39	X40	Y40	Z40	X41	Y41	Z41	X42	Y42	Z42	X43	Y43	Z43	X44	Y44	Z44	X45	Y45	Z45	X46	Y46	Z46	X47	Y47	Z47	X48	Y48	Z48	X49	Y49	Z49	X50	Y50	Z50	X51	Y51	Z51	X52	Y52	Z52	X53	Y53	Z53	X54	Y54	Z54	X55	Y55	Z55	X56	Y56	Z56	X57	Y57	Z57	X58	Y58	Z58	X59	Y59	Z59	X60	Y60	Z60	X61	Y61	Z61	

951	4.75	-61.03738403320314	1577.02880859375	-759.0690917968751	-194.976547241211	1546.751220703125	-786.237243652344	-221.0912628173829	1530.197143554688	-653.3543090820314	-248.0034790039063	1448.566528320313	-716.3156127929689	-413.383026123047	1161.219482421875	-737.2722167968751	-146.4180297851563	1333.77880859375	-714.5710449218751	-165.4263916015625	1401.960205078125	-848.877136230469	-89.48663330078126	1329.661254882813	-947.0086669921877	-48.60482788085939	1345.409912109375	-922.4407348632815	-28.85826110839844	1299.638305664063	-957.2544555664065	74.62117004394533	1270.084350585938	-958.558776855469	66.99057006835939	1211.800659179688	-917.942077636719	329.1655273437501	1282.631469726563	-833.8603515625002	336.3442077636719	1280.703369140625	-908.3635864257815	410.9909057617189	1289.8642578125	-822.719421386719	-155.3874816894532	1387.947509765625	-577.5792236328126	-78.68967437744142	1284.604858398438	-473.972869873047	-37.71092605590821	1303.058715820313	-491.0218505859376	-18.08011245727539	1251.936279296875	-466.9241027832032	72.9210891723633	1229.026245117188	-466.1939392089845	67.26885223388673	1174.501098632813	-528.8737182617189	323.8132934570313	1255.431640625	-583.7276611328126	334.8884277343751	1262.915893554688	-511.1717834472657	415.2278137207032	1280.260375976563	-589.3095703125001	-311.6667785644532	947.470397949219	-854.151062011719	-318.2254333496094	964.408874511719	-610.7108764648439	-474.2237243652345	1062.174072265625	-737.1527709960939	-491.264862060547	1035.512084960938	-763.6501464843751	-499.0154113769532	1038.617919921875	-707.4166870117189	-339.5490722656251	635.0783691406251	-911.5529785156252	-297.8993835449219	562.3534545898439	-892.2398681640627	-258.7081604003907	569.5008544921876	-863.399353027344	-324.8825683593751	509.4022521972657	-883.2896118164065	-334.0764770507813	464.3051757812501	-884.2190551757815	-345.7089538574219	463.3815917968751	-748.1765136718751	-494.7654113769532	369.9379882812501	-836.3656005859377	-541.9122924804689	415.0694580078126	-894.0737304687502	-542.7374877929689	377.5920104980469	-871.2822875976565	-621.2294311523439	366.5036315917969	-840.7593994140627	-745.8867797851564	404.9477539062501	-876.8350219726565	-723.6249389648439	404.9541015625001	-789.937683105469	-783.3760375976565	465.0046997070314	-841.1589355468752	-773.091491699219	247.352035522461	-780.0573730468752	-772.6043090820315	240.9496002197266	-819.372009277344	-798.1109008789065	268.3359985351563	-874.6538085937502	-358.6006774902344	743.7623901367189	-546.5017089843751	-305.7204284667969	703.6249389648439	-551.2827148437501	-274.8933105468751	715.0970458984376	-556.5714111328126	-305.5848999023438	624.1383666992189	-579.5949096679689	-249.7004852294922	493.1953735351564	-606.6440429687501	-238.9001159667969	340.5312805175782	-714.4623413085939	-273.1527404785157	257.6993713378907	-655.3309326171876	-253.7131652832032	256.3655090332032	-699.1861572265626	-283.7229919433594	220.7338104248047	-734.1682739257814	-355.9883117675782	98.53201293945315	-689.6101074218751	-350.1539611816407	127.8017272949219	-775.2261962890627	-430.2476501464845	82.0128860473633	-744.6896362304689	-206.442855834961	54.59007263183595	-761.8299560546876	-206.0043029785157	52.06552886962892	-720.1936035156251	-248.5440673828126	35.23391342163087	-671.2894897460939	-249.4956512451172	497.0402832031251	-734.4151000976564	
952	4.755	-61.52492904663087	1578.66015625	-758.8722534179689	-195.7237854003907	1548.281494140625	-786.0291137695315	-221.7012634277344	1531.627197265625	-653.1314086914064	-248.6259918212891	1449.923950195313	-716.1720581054689	-413.3636474609376	1162.30078125	-737.1959228515626	-146.7240142822266	1335.392333984375	-714.5858154296876	-165.9822845458985	1403.494995117188	-848.804382324219	-89.88832092285158	1331.3857421875	-947.006286621094	-49.07411193847658	1347.088745117188	-922.283630371094	-29.25464057922364	1301.263549804688	-957.0459594726565	74.01916503906251	1271.52294921875	-958.5128173828127	66.54538726806642	1213.28076171875	-917.8648071289065	328.7265930175782	1284.432495117188	-833.9211425781252	335.9095458984376	1282.364624023438	-908.3779296875002	410.1428833007814	1291.588256835938	-822.505065917969	-155.8442687988282	1389.236083984375	-577.3463745117189	-79.08978271484376	1285.914428710938	-473.9087219238282	-38.13534164428712	1304.517456054688	-490.8724060058595	-18.33998107910157	1253.407348632813	-466.8813476562501	72.56804656982423	1230.544921875	-466.2312927246095	66.93634033203126	1175.932861328125	-528.7951049804689	323.8969421386719	1257.042724609375	-584.1871337890626	334.5242614746094	1264.508911132813	-511.0859375000001	414.9304809570314	1281.880004882813	-589.1183471679689	-311.4078674316407	948.7613525390627	-854.295593261719	-317.7760925292969	965.459899902344	-610.7023925781251	-474.0353393554689	1063.04736328125	-737.0535888671876	-490.8690795898439	1036.35595703125	-763.6600341796876	-498.7179565429689	1039.632690429688	-707.3528442382814	-338.7742614746094	635.8466796875001	-911.3486328125002	-297.0993652343751	563.4562377929689	-892.412780761719	-258.1398925781251	570.6417236328126	-863.3983154296877	-324.1530456542969	510.5225830078126	-883.4362792968752	-333.3098144531251	465.3627014160157	-884.4023437500002	-344.9883728027344	464.4732666015626	-748.2331542968751	-493.8125305175782	370.7798767089844	-836.2991333007815	-541.1992187500001	415.8398742675782	-894.208679199219	-541.8973999023439	378.3653564453126	-871.4211425781252	-620.2938842773439	366.9815368652344	-841.326599121094	-744.9926147460939	405.3119506835939	-876.700622558594	-722.7913818359376	405.3648986816407	-790.005065917969	-782.6511840820315	465.3812255859376	-841.2005004882815	-771.9605102539065	247.7424316406251	-779.987731933594	-771.415954589844	241.296615600586	-819.2302856445315	-797.0694580078127	268.6795654296876	-874.6278076171877	-358.7864990234376	744.5559692382814	-546.4091796875001	-306.1280517578126	703.9144897460939	-551.1849365234376	-275.1940612792969	715.6381835937501	-556.4794921875001	-306.2379760742188	624.6679687500001	-579.4772949218751	-250.6573028564454	493.486297607422	-606.3731079101564	-239.4462890625001	340.7703552246094	-714.1727905273439	-273.6161193847657	257.8833312988282	-655.0875854492189	-254.1790313720704	256.5964965820313	-698.8945312500001	-284.0206909179688	220.8197326660157	-733.9027709960939	-356.1502075195313	98.59058380126956	-689.4721679687501	-350.1641235351563	127.8835067749024	-775.118591308594	-430.2946166992189	82.02743530273439	-744.6209106445314	-206.3820037841797	54.63246154785158	-761.7862548828126	-206.0232696533204	52.05039978027345	-720.1588134765626	-248.5247497558594	35.19570922851563	-671.2502441406251	-250.5722656250001	497.1163635253907	-734.0294189453126	
953	4.76	-62.42244338989259	1580.256713867188	-758.6339111328126	-196.3232421875001	1549.84228515625	-785.784606933594	-222.1861877441407	1533.141967773438	-652.6423339843751	-249.2831268310547	1451.322021484375	-715.9146728515626	-413.3652343750001	1163.21142578125	-737.1049194335939	-147.1349182128907	1336.758422851563	-714.4522094726564	-166.430404663086	1405.021850585938	-848.7614746093752	-90.52701568603517	1332.83056640625	-946.9465332031252	-49.71157455444337	1348.571411132813	-922.3192138671877	-29.88144683837891	1302.815063476563	-957.177673339844	73.64315795898439	1273.261352539063	-958.455505371094	66.12145996093751	1214.786254882813	-918.0256958007815	328.3109436035157	1286.13671875	-833.861022949219	335.4598693847657	1284.126342773438	-908.3452148437502	410.0144958496095	1293.276245117188	-822.636413574219	-156.3035125732422	1390.664428710938	-577.3148803710939	-79.38196563720705	1287.296630859375	-473.8240966796876	-38.45764160156251	1305.839233398438	-490.8241577148439	-18.77115440368653	1254.664306640625	-466.6948242187501	72.23835754394533	1231.929809570313	-466.1032714843751	66.71416473388673	1177.359375	-528.6310424804689	323.4728698730469	1258.735107421875	-583.7140502929689	334.1847534179688	1266.091186523438	-510.9822692871095	414.5985412597657	1283.506591796875	-588.9769897460939	-310.9582824707032	949.8965454101565	-854.4204101562502	-317.1778259277344	966.3763427734377	-610.6688232421876	-473.8717651367189	1063.895874023438	-737.0286865234376	-490.7204589843751	1037.143188476563	-763.6777954101564	-498.3875122070314	1040.4619140625	-707.3662109375001	-337.9372253417969	637.4074707031251	-910.8348388671877	-296.3782958984376	564.5209350585939	-892.4968872070315	-257.4738159179688	571.7584838867189	-863.553405761719	-323.1779479980469	511.6616210937501	-883.5113525390627	-332.4932250976563	466.5078735351564	-884.5197753906252	-344.3621215820313	465.6168518066407	-748.1736450195314	-492.843475341797	371.6774291992188	-836.3696899414065	-540.1190185546876	416.4514770507814	-894.2009887695315	-541.0479736328126	379.2260131835938	-871.686950683594	-619.4052734375001	367.8580627441407	-840.8442382812502	-744.1876831054689	405.8395080566407	-876.6470947265627	-721.8925781250001	405.8302307128907	-790.0139160156252	-781.844665527344	465.7736816406251	-841.1355590820315	-770.8550415039065	248.1677856445313	-780.095153808594	-770.254821777344	241.810287475586	-819.1959228515627	-795.6638793945315	268.8950195312501	-874.364196777344	-359.0013427734376	745.3172607421876	-546.3576660156251	-306.4243469238282	704.5040283203126	-551.0620727539064	-275.5275268554688	716.1762084960939	-556.3904418945314	-306.8274536132813	625.2270507812501	-579.3114013671876	-251.6252136230469	493.8068847656251	-606.1134033203126	-239.902572631836	341.0379638671876	-713.7918701171876	-274.1785278320313	257.9347839355469	-654.5849609375001	-254.6038208007813	256.8232727050782	-698.6066894531251	-284.1916503906251	221.0175170898438	-733.6553955078126	-356.0824584960938	98.49037170410159	-689.4667968750001	-350.1975097656251	127.9032745361328	-774.9805908203127	-430.3103637695314	82.02005767822267	-744.5969848632814	-206.3878784179688	54.66464996337892	-761.7907714843751	-205.9957885742188	52.0245933532715	-720.1202392578126	-248.5192413330079	35.17196655273438	-671.2520751953126	-251.1146240234376	497.415985107422	-733.8292236328126	
954	4.765	-63.42293167114259	1581.621704101563	-758.3840942382814	-196.8944854736329	1551.376220703125	-785.6174316406252	-222.9500274658204	1534.532104492188	-652.6684570312501	-249.8835144042969	1452.61962890625	-715.7246093750001	-413.3441467285157	1164.16748046875	-737.0623779296876	-147.4622497558594	1338.478637695313	-714.3759765625001	-166.9854278564453	1406.533447265625	-848.6053466796877	-90.96671295166017	1334.451171875	-946.8590087890627	-49.97678756713869	1350.214477539063	-922.131042480469	-30.18048667907716	1304.334350585938	-956.9051513671877	73.12725067138673	1274.81298828125	-958.4609375000002	65.45526123046876	1217.518920898438	-918.1404418945315	327.6355285644532	1287.654907226563	-833.966735839844	334.9537353515626	1285.752319335938	-908.249694824219	409.5269470214845	1295.117065429688	-822.5948486328127	-156.8126220703125	1392.000244140625	-577.0760498046876	-79.79924774169923	1288.582763671875	-473.7757873535157	-38.84193801879884	1307.239990234375	-490.7417297363282	-19.1149959564209	1256.100952148438	-466.6885070800782	71.85159301757814	1233.465698242188	-466.0946350097657	66.29595947265626	1178.897827148438	-528.6428222656251	323.0809326171876	1260.244140625	-583.8295898437501	333.8500061035157	1267.666259765625	-510.8834838867189	414.3486938476564	1285.096801757813	-588.7848510742189	-310.6861877441407	951.0224609375002	-854.5323486328127	-316.9758605957032	967.2271118164065	-610.8289794921876	-473.6050415039064	1064.732299804688	-737.0336303710939	-490.3916931152345	1037.924072265625	-763.6116333007814	-498.2980041503907	1041.221313476563	-707.3015747070314	-337.5302429199219	638.4276733398439	-911.3714599609377	-295.6056518554688	565.7010498046876	-892.6290283203127	-256.7242431640626	572.8953857421876	-863.5999755859377	-322.4294433593751	512.5891113281251	-883.6948852539065	-331.7445373535157	467.6145019531251	-884.6195068359377	-343.5307922363282	466.7245178222657	-748.2854614257814	-492.0053100585939	372.3986511230469	-836.8604125976565	-539.1919555664064	417.3243713378907	-894.3117675781252	-540.3555297851564	379.8497009277344	-871.8018188476565	-618.4766845703126	368.5180053710938	-840.9188232421877	-743.3079223632814	406.3723144531251	-876.6821289062502	-720.9209594726564	406.2810974121095	-789.9842529296877	-781.0110473632815	466.1740722656251	-841.0261230468752	-769.6718750000002	248.5266265869141	-780.1267700195315	-768.996520996094	242.1071777343751	-819.170837402344	-794.1592407226565	268.8545837402344	-874.3899536132815	-359.1823425292969	746.0884399414064	-546.2832031250001	-306.7695617675782	705.0883178710939	-550.9449462890626	-275.8346557617188	716.6599121093751	-556.1248779296876	-307.4588317871094	625.8289794921876	-579.1747436523439	-252.3951568603516	494.1265563964845	-605.7677612304689	-240.3802642822266	341.2812500000001	-713.4216308593751	-274.6262207031251	258.1719360351563	-654.3347167968751	-255.0121154785157	257.0886230468751	-698.3245849609376	-284.4494018554688	221.2061004638672	-733.4153442382814	-356.2860717773438	98.55034637451175	-689.2685546875001	-350.1786804199219	127.9204559326172	-774.8054199218752	-430.2879028320314	82.04335784912111	-744.5687255859376	-206.3909606933594	54.67283630371095	-761.7393188476564	-206.0093841552735	52.01457595825197	-720.0802001953126	-248.5690612792969	35.14294815063477	-671.2491455078126	-251.4032745361329	497.7870483398439	-733.8329467773439	
